# xmcd
#
# Track frame offsets:
#	151
#	12930
#	26176
#	40548
#	55016
#	67515
#	78815
#	89534
#	101102
#	113529
#	125950
#	139207
#	153037
#	166654
#	180014
#	192553
#	204708
#	217952
#
# Disc length: 3102 seconds
#
# Revision: 1
# Processed by: cddbd v1.5.2PL0 Copyright (c) Steve Scherf et al.
# Submitted via: CDmax 2.0
#
DISCID=e10c1c12
DTITLE=T-Bone Walker - The Best of  T-Bone Walker: The Talkin' Guitar
DYEAR=2001
DGENRE=Blues
TTITLE0=Blues Is a Woman
TTITLE1=I Got the Blues
TTITLE2=Through With Women
TTITLE3=Cold Cold Feeling
TTITLE4=Life Is Too Short
TTITLE5=The Hustle Is On
TTITLE6=Travelin' Blues
TTITLE7=Evil Hearted Woman
TTITLE8=Baby Broke My Heart
TTITLE9=Glamour Girl
TTITLE10=You Don't Love Me
TTITLE11=Call It Stormy Monday
TTITLE12=T-Bone Shuffle
TTITLE13=Vacation Blues
TTITLE14=Midnight Blues
TTITLE15=Bobby Sox Blues
TTITLE16=Mean Old World
TTITLE17=T-Bone Blues
EXTD=LABEL =Blues Forever - Promo Sound Ltd.\nID =bd68009cd\nUPC =828317-68
EXTD=0926\nCOPYRIGHT =2001
EXTT0=
EXTT1=
EXTT2=
EXTT3=
EXTT4=
EXTT5=
EXTT6=
EXTT7=
EXTT8=
EXTT9=
EXTT10=
EXTT11=
EXTT12=
EXTT13=
EXTT14=
EXTT15=
EXTT16=
EXTT17=
PLAYORDER=
